<?xml version="1.0" standalone="no"?>
<!DOCTYPE svg PUBLIC "-//W3C//DTD SVG 20010904//EN"
 "http://www.w3.org/TR/2001/REC-SVG-20010904/DTD/svg10.dtd">
<svg version="1.0" xmlns="http://www.w3.org/2000/svg"
 width="1024.000000pt" height="1024.000000pt" viewBox="0 0 1024.000000 1024.000000"
 preserveAspectRatio="xMidYMid meet">
<metadata>
Created by potrace 1.14, written by Peter Selinger 2001-2017
</metadata>
<g transform="translate(0.000000,1024.000000) scale(0.100000,-0.100000)"
fill="#000000" stroke="none">
<path d="M5035 10200 c3 -5 -4 -11 -15 -15 -11 -3 -20 -11 -20 -16 0 -5 -5 -9
-11 -9 -5 0 -7 6 -4 13 4 6 -3 1 -15 -13 -12 -14 -19 -19 -15 -12 6 12 3 12
-16 1 -13 -7 -27 -12 -31 -11 -4 1 -5 -5 -1 -14 4 -11 0 -15 -13 -12 -11 2
-18 -2 -17 -9 2 -7 -4 -10 -12 -7 -8 4 -15 1 -15 -6 0 -6 -4 -8 -10 -5 -5 3
-10 1 -10 -5 0 -7 -7 -9 -16 -6 -8 3 -12 2 -9 -4 3 -6 -1 -10 -10 -10 -9 0
-23 -7 -31 -15 -9 -8 -25 -15 -37 -15 -16 0 -18 -3 -9 -9 10 -6 4 -10 -18 -15
-25 -4 -31 -10 -26 -22 5 -14 4 -15 -7 -5 -11 9 -17 8 -27 -4 -7 -8 -16 -12
-21 -9 -5 3 -9 -2 -9 -12 0 -14 -2 -15 -17 -3 -10 9 -14 9 -10 2 8 -13 -26
-37 -36 -26 -4 3 -9 -2 -13 -11 -3 -9 -10 -13 -15 -10 -5 3 -9 0 -9 -6 0 -6
-4 -8 -10 -5 -5 3 -10 1 -10 -5 0 -6 -4 -8 -10 -5 -5 3 -10 1 -10 -4 0 -6 -7
-11 -15 -11 -7 0 -19 -8 -24 -17 -6 -11 -11 -13 -11 -5 0 10 -3 10 -14 0 -8
-7 -12 -15 -11 -18 2 -3 -6 -7 -18 -7 -12 -1 -23 -7 -25 -13 -2 -5 -8 -8 -13
-4 -5 3 -9 0 -9 -6 0 -6 -4 -9 -9 -6 -5 3 -12 -1 -15 -10 -3 -8 -10 -13 -15
-10 -5 4 -16 -1 -24 -9 -9 -8 -20 -15 -26 -15 -6 0 -11 -4 -11 -9 0 -5 -10 -7
-22 -4 -17 3 -19 2 -10 -5 11 -7 8 -11 -12 -16 -14 -3 -26 -12 -26 -19 0 -8
-4 -7 -10 3 -8 13 -10 13 -10 -2 0 -12 -5 -15 -17 -11 -9 4 -14 2 -10 -3 3 -6
-10 -16 -29 -23 -18 -7 -34 -17 -34 -23 0 -5 -6 -8 -14 -5 -8 3 -17 -1 -20 -9
-3 -9 -10 -13 -15 -10 -5 3 -12 -1 -15 -10 -3 -8 -10 -12 -16 -9 -6 3 -13 0
-16 -9 -3 -8 -14 -13 -25 -11 -10 2 -19 0 -19 -6 0 -5 -11 -14 -25 -21 -13 -6
-22 -16 -18 -22 3 -6 0 -5 -7 1 -11 10 -17 7 -33 -15 -13 -19 -17 -21 -13 -7
5 18 5 18 -7 4 -6 -9 -22 -19 -35 -23 -12 -4 -22 -11 -22 -16 0 -5 -7 -7 -15
-4 -8 4 -17 -1 -21 -10 -3 -9 -10 -13 -15 -10 -5 3 -9 0 -9 -6 0 -7 -7 -9 -16
-6 -8 3 -12 2 -9 -4 3 -5 -6 -12 -20 -16 -14 -3 -22 -11 -18 -17 4 -6 0 -8
-10 -4 -10 4 -17 1 -17 -5 0 -6 -3 -8 -6 -5 -4 4 -15 -3 -25 -15 -11 -11 -19
-16 -19 -9 0 7 -5 9 -11 6 -6 -4 -8 -10 -5 -13 3 -3 -3 -12 -15 -20 -11 -8
-23 -11 -26 -8 -4 3 -1 6 5 6 7 0 12 5 12 10 0 6 -11 3 -24 -7 -13 -10 -22
-22 -19 -27 3 -4 -4 -5 -16 -1 -16 5 -20 3 -15 -8 3 -8 0 -18 -7 -23 -8 -4
-10 -3 -5 4 10 17 -10 15 -27 -3 -8 -8 -17 -11 -21 -8 -3 4 -6 1 -6 -5 0 -7
-7 -12 -15 -12 -8 0 -15 -4 -15 -9 0 -5 -10 -11 -22 -13 -13 -2 -22 -9 -21
-15 2 -7 -4 -10 -12 -7 -8 4 -18 -1 -21 -10 -5 -14 -9 -14 -22 -4 -10 9 -13 9
-9 1 4 -7 -1 -14 -13 -18 -11 -3 -20 -11 -20 -16 0 -5 -9 -9 -19 -9 -11 0 -21
-5 -23 -11 -2 -5 -12 -11 -21 -13 -10 -1 -22 -7 -25 -12 -10 -13 -71 -44 -89
-44 -9 0 -13 -6 -10 -14 4 -10 1 -13 -9 -9 -7 3 -14 0 -14 -7 0 -6 -5 -8 -11
-5 -6 4 -17 -1 -25 -11 -9 -11 -12 -13 -8 -5 5 9 -2 7 -18 -5 -14 -10 -24 -22
-22 -26 2 -3 -4 -4 -15 -1 -10 3 -22 -1 -26 -8 -6 -8 -4 -10 5 -4 8 5 11 4 6
-3 -3 -6 -15 -9 -26 -7 -11 2 -20 -1 -20 -6 0 -6 -5 -7 -10 -4 -6 4 -9 1 -8
-7 2 -7 -4 -13 -12 -13 -8 0 -23 -9 -32 -20 -11 -13 -17 -15 -18 -7 0 11 -3
11 -15 0 -34 -31 -43 -36 -49 -31 -3 4 -6 1 -6 -5 0 -7 -3 -11 -7 -10 -19 4
-64 -23 -57 -34 4 -7 3 -8 -4 -4 -7 4 -12 1 -12 -6 0 -9 -3 -9 -10 2 -8 13
-10 12 -10 -3 0 -9 -3 -16 -7 -16 -21 3 -34 -2 -28 -11 4 -6 3 -10 -2 -9 -17
4 -63 -14 -57 -22 3 -5 -2 -9 -11 -9 -9 0 -31 -10 -48 -22 -18 -13 -28 -16
-23 -7 4 7 0 5 -9 -6 -9 -11 -21 -19 -26 -17 -5 1 -9 -3 -9 -9 0 -5 -4 -8 -9
-4 -6 3 -14 -3 -20 -12 -6 -10 -11 -14 -11 -10 0 5 -13 -1 -29 -12 -22 -16
-31 -18 -34 -9 -4 10 -6 10 -6 0 -2 -23 -27 -42 -39 -30 -7 7 -14 4 -23 -10
-7 -12 -19 -18 -28 -14 -10 4 -13 1 -8 -12 4 -9 3 -15 -2 -11 -5 3 -15 -1 -23
-8 -7 -8 -19 -12 -26 -9 -6 2 -12 -2 -12 -8 0 -7 -7 -10 -14 -7 -11 4 -13 1
-9 -10 5 -12 2 -15 -10 -10 -11 4 -25 -1 -36 -12 -11 -11 -22 -17 -25 -14 -3
3 -8 -1 -12 -10 -3 -9 -12 -13 -20 -10 -8 3 -14 1 -14 -5 0 -5 -9 -12 -21 -15
-12 -3 -18 -10 -15 -16 4 -6 -2 -8 -16 -6 -13 3 -29 -3 -41 -15 -10 -11 -22
-18 -27 -15 -4 3 -11 -2 -14 -11 -4 -10 -12 -14 -22 -10 -11 4 -15 2 -11 -8 4
-10 1 -13 -7 -10 -7 3 -19 -2 -26 -10 -7 -9 -16 -13 -22 -10 -13 8 -39 -16
-31 -29 3 -5 1 -7 -5 -3 -6 3 -13 2 -16 -3 -3 -5 -16 -7 -29 -4 -17 4 -19 2
-8 -5 12 -9 10 -12 -12 -17 -15 -4 -27 -11 -27 -15 0 -7 -28 -18 -46 -18 -3
-1 -11 -8 -18 -18 -7 -9 -18 -14 -24 -10 -8 4 -12 0 -12 -11 0 -15 -2 -16 -10
-3 -8 13 -10 12 -10 -2 0 -10 -5 -18 -11 -18 -5 0 -7 5 -4 11 4 6 -2 5 -13 -2
-12 -7 -18 -17 -16 -21 5 -7 -19 -13 -39 -9 -5 1 -5 -4 -1 -10 5 -9 2 -10 -10
-6 -10 4 -15 3 -11 -3 3 -6 -1 -10 -9 -10 -9 0 -16 -5 -16 -12 0 -6 -3 -8 -7
-5 -3 4 -12 -1 -19 -11 -10 -13 -13 -13 -14 -3 0 10 -6 7 -19 -7 -10 -12 -21
-19 -25 -15 -3 3 -6 1 -6 -6 0 -7 -5 -9 -12 -5 -8 5 -9 2 -4 -11 5 -15 4 -16
-9 -5 -11 9 -15 9 -15 1 0 -7 -5 -9 -10 -6 -6 3 -13 -1 -16 -9 -3 -9 -10 -14
-14 -11 -5 3 -11 1 -15 -5 -4 -6 -11 -8 -16 -4 -5 3 -8 0 -7 -8 2 -7 -3 -12
-9 -11 -7 2 -13 -2 -13 -8 0 -5 -4 -7 -10 -4 -5 3 -10 1 -10 -6 0 -7 -3 -9 -7
-6 -3 4 -12 -1 -20 -11 -8 -9 -12 -11 -8 -5 4 9 1 11 -9 7 -9 -3 -13 -10 -10
-15 5 -8 0 -10 -34 -13 -7 -1 -17 -8 -22 -16 -5 -8 -10 -11 -10 -6 0 6 -6 2
-13 -8 -7 -9 -22 -18 -35 -19 -12 0 -22 -7 -22 -14 0 -7 -3 -12 -7 -11 -13 2
-47 -15 -61 -31 -11 -13 -12 -13 -7 -1 4 10 2 9 -8 -2 -8 -10 -17 -15 -20 -11
-4 3 -7 1 -7 -6 0 -7 -4 -9 -10 -6 -5 3 -10 1 -10 -6 0 -7 -3 -10 -6 -6 -4 3
-13 -1 -21 -9 -8 -8 -18 -12 -23 -9 -4 3 -10 -2 -14 -10 -3 -8 -10 -15 -16
-15 -6 0 -8 6 -5 13 4 6 0 4 -8 -5 -8 -10 -18 -14 -23 -10 -4 4 -2 -1 5 -11
12 -15 12 -17 -1 -12 -8 3 -27 -6 -42 -20 -15 -14 -31 -25 -37 -25 -5 0 -8 -3
-7 -7 3 -17 -15 -62 -23 -57 -5 3 -6 -2 -3 -10 3 -9 1 -16 -5 -16 -7 0 -7 -8
0 -26 8 -24 8 -25 -6 -14 -14 11 -15 10 -6 -12 7 -18 6 -29 -2 -38 -9 -10 -9
-11 0 -6 8 5 13 1 13 -9 0 -10 -5 -13 -12 -9 -7 5 -8 3 -2 -7 12 -20 12 -61 0
-78 -8 -11 -8 -13 2 -7 16 9 16 -6 -1 -23 -9 -11 -9 -13 1 -7 7 5 12 1 12 -9
0 -10 -5 -14 -12 -9 -10 6 -10 4 -1 -7 17 -17 17 -32 1 -23 -10 6 -10 4 -1 -7
14 -14 18 -53 5 -45 -5 3 -9 -1 -9 -9 0 -8 4 -12 7 -10 10 6 6 -67 -4 -84 -6
-10 -5 -12 2 -7 15 9 15 5 2 -29 -9 -24 -8 -26 6 -21 14 5 15 4 4 -9 -7 -8 -9
-15 -5 -15 4 0 1 -8 -6 -17 -10 -11 -10 -14 -2 -9 7 4 13 3 13 -1 0 -5 -6 -15
-13 -22 -9 -11 -9 -13 1 -7 7 5 12 1 12 -9 0 -10 -5 -13 -12 -9 -7 5 -8 3 -2
-7 12 -20 12 -61 0 -78 -8 -11 -8 -13 2 -7 16 9 16 -6 0 -23 -10 -11 -10 -13
0 -7 7 5 12 1 12 -9 0 -10 -5 -14 -12 -9 -10 6 -11 4 0 -7 16 -17 16 -32 -1
-23 -9 6 -9 4 1 -7 13 -14 17 -53 4 -45 -5 3 -9 -1 -9 -9 0 -8 4 -12 7 -10 10
6 6 -67 -4 -84 -6 -10 -5 -12 2 -7 15 9 15 5 2 -29 -9 -24 -8 -26 6 -21 14 5
15 4 4 -9 -7 -8 -9 -15 -5 -15 4 0 1 -8 -6 -17 -10 -11 -10 -14 -1 -9 16 9 16
-6 0 -23 -10 -11 -10 -13 0 -7 7 5 12 1 12 -9 0 -10 -5 -13 -12 -9 -7 5 -8 3
-2 -7 12 -20 12 -61 0 -78 -8 -11 -8 -13 2 -7 15 9 15 5 2 -29 -9 -24 -8 -26
6 -21 14 5 15 4 4 -9 -7 -8 -9 -15 -5 -15 4 0 1 -8 -6 -17 -10 -11 -10 -14 -1
-9 16 9 16 -6 0 -23 -10 -11 -10 -13 0 -7 7 5 12 1 12 -9 0 -10 -5 -14 -12 -9
-10 5 -10 4 -1 -6 8 -9 9 -20 2 -37 -8 -22 -7 -24 7 -19 14 5 15 4 4 -9 -7 -8
-9 -15 -5 -15 4 0 1 -8 -6 -17 -10 -11 -10 -14 -1 -9 16 9 16 -6 0 -23 -10
-11 -10 -13 0 -7 7 5 12 1 12 -9 0 -10 -5 -14 -12 -9 -10 5 -10 4 -1 -6 8 -9
9 -20 2 -37 -8 -22 -7 -24 7 -19 14 5 15 4 4 -9 -7 -8 -9 -15 -5 -15 4 0 1 -8
-6 -17 -10 -11 -10 -14 -1 -9 16 9 16 -6 0 -23 -10 -11 -10 -13 0 -7 7 5 12 1
12 -9 0 -10 -5 -14 -12 -9 -10 5 -10 4 -1 -6 8 -9 9 -20 2 -37 -8 -22 -7 -24
7 -19 14 5 15 4 4 -9 -7 -8 -9 -15 -5 -15 4 0 1 -8 -6 -17 -10 -11 -10 -14 -1
-9 16 9 16 -6 0 -23 -10 -11 -10 -13 -1 -7 8 5 13 1 13 -9 0 -10 -5 -13 -12
-9 -7 5 -8 3 -2 -7 12 -20 12 -61 0 -78 -8 -11 -8 -13 2 -7 15 9 15 5 2 -29
-9 -24 -8 -26 6 -21 14 5 15 4 4 -9 -7 -8 -9 -15 -5 -15 4 0 1 -8 -6 -17 -10
-11 -10 -14 -2 -9 17 9 17 -6 1 -23 -10 -11 -10 -13 -1 -7 8 5 13 1 13 -9 0
-10 -5 -13 -12 -9 -7 5 -8 3 -2 -7 12 -20 12 -61 0 -78 -8 -11 -8 -13 2 -7 16
9 16 -6 0 -23 -10 -11 -10 -13 0 -7 7 5 12 1 12 -9 0 -10 -5 -14 -13 -9 -9 6
-9 4 1 -7 16 -17 16 -32 0 -23 -10 6 -10 4 0 -7 13 -14 17 -53 4 -45 -5 3 -9
-1 -9 -9 0 -8 4 -12 7 -10 10 6 6 -67 -4 -84 -6 -10 -5 -12 2 -7 15 9 15 5 2
-29 -9 -24 -8 -26 6 -21 14 5 15 4 4 -9 -7 -8 -9 -15 -5 -15 4 0 1 -8 -6 -17
-10 -11 -10 -14 -1 -9 6 4 12 3 12 -1 0 -5 -6 -15 -12 -22 -10 -11 -10 -13 0
-7 7 5 12 1 12 -9 0 -10 -5 -13 -12 -9 -7 5 -8 3 -2 -7 12 -20 12 -61 0 -78
-8 -11 -8 -13 2 -7 16 9 16 -6 0 -23 -10 -11 -10 -13 0 -7 7 5 12 1 12 -9 0
-10 -5 -14 -12 -9 -10 6 -11 4 0 -7 16 -17 16 -32 0 -23 -10 6 -11 4 0 -7 13
-14 17 -53 4 -45 -5 3 -9 -1 -9 -9 0 -8 4 -12 7 -10 10 6 6 -67 -4 -84 -6 -10
-5 -12 2 -7 15 9 15 5 2 -29 -9 -24 -8 -26 6 -21 14 5 15 4 4 -9 -7 -8 -9 -15
-5 -15 4 0 1 -8 -6 -17 -10 -11 -10 -14 -1 -9 16 9 16 -6 0 -23 -10 -11 -10
-13 0 -7 7 5 12 1 12 -9 0 -10 -5 -13 -12 -9 -7 5 -8 3 -2 -7 12 -20 12 -61 0
-78 -8 -11 -8 -13 1 -7 16 9 16 5 3 -29 -9 -24 -8 -26 6 -21 14 5 15 4 4 -9
-7 -8 -9 -15 -5 -15 4 0 1 -8 -6 -17 -10 -11 -10 -14 -1 -9 16 9 16 -6 0 -23
-10 -11 -10 -13 0 -7 7 5 12 1 12 -9 0 -10 -5 -14 -12 -9 -10 5 -10 4 -1 -6 8
-9 9 -20 2 -37 -8 -22 -7 -24 7 -19 14 5 15 4 4 -9 -7 -8 -9 -15 -5 -15 4 0 1
-8 -6 -17 -10 -11 -10 -14 -1 -9 16 9 16 -6 0 -23 -10 -11 -10 -13 0 -7 7 5
12 1 12 -9 0 -10 -5 -14 -12 -9 -10 5 -10 4 -1 -6 8 -9 9 -20 2 -37 -8 -22 -7
-24 7 -19 14 5 15 4 4 -9 -7 -8 -9 -15 -5 -15 4 0 1 -8 -6 -17 -10 -11 -10
-14 -1 -9 16 9 16 -6 0 -23 -10 -11 -10 -13 0 -7 7 5 12 1 12 -9 0 -10 -5 -14
-12 -9 -10 5 -10 4 -1 -6 8 -9 9 -20 2 -37 -8 -22 -7 -24 7 -19 14 5 15 4 4
-9 -7 -8 -9 -15 -5 -15 4 0 1 -8 -6 -17 -10 -11 -10 -14 -1 -9 16 9 16 -6 0
-23 -10 -11 -10 -13 0 -7 7 5 12 1 12 -9 0 -10 -5 -13 -12 -9 -7 5 -8 3 -2 -7
12 -20 12 -61 0 -78 -8 -11 -8 -13 2 -7 15 9 15 5 2 -29 -9 -24 -8 -26 6 -21
14 5 15 4 4 -9 -7 -8 -9 -15 -5 -15 4 0 1 -8 -6 -17 -10 -11 -10 -14 -1 -9 6
4 12 3 12 -1 0 -5 -6 -15 -12 -22 -10 -11 -10 -13 -1 -7 8 5 13 1 13 -9 0 -10
-5 -13 -12 -9 -7 5 -8 3 -2 -7 12 -20 12 -61 0 -78 -8 -11 -8 -13 2 -7 6 4 12
3 12 -1 0 -5 -6 -15 -12 -22 -10 -11 -10 -13 0 -7 7 5 12 1 12 -9 0 -10 -5
-14 -12 -9 -10 6 -11 4 0 -7 16 -17 16 -32 -1 -23 -9 6 -9 4 1 -7 13 -14 17
-53 4 -45 -5 3 -9 -1 -9 -9 0 -8 4 -12 7 -10 10 6 6 -67 -4 -84 -6 -10 -5 -12
2 -7 15 9 15 5 2 -29 -9 -24 -8 -26 6 -21 14 5 15 4 4 -9 -7 -8 -9 -15 -5 -15
4 0 1 -8 -6 -17 -10 -11 -10 -14 -1 -9 6 4 12 3 12 -1 0 -5 -6 -15 -12 -22
-10 -11 -10 -13 0 -7 7 5 12 1 12 -9 0 -10 -5 -13 -12 -9 -7 5 -8 3 -2 -7 12
-20 12 -61 0 -78 -8 -11 -8 -13 2 -7 6 4 12 3 12 -1 0 -5 -6 -15 -12 -22 -10
-11 -10 -13 0 -7 7 5 12 1 12 -9 0 -9 -4 -14 -8 -11 -5 3 -9 -2 -9 -10 0 -9 6
-13 16 -9 13 5 13 4 4 -6 -8 -8 -9 -18 -2 -30 8 -15 6 -17 -8 -12 -17 7 -17 5
1 -21 10 -16 13 -26 8 -22 -6 3 -13 2 -17 -4 -3 -5 -2 -10 3 -10 11 0 10 -40
-2 -59 -6 -10 -5 -12 2 -7 15 9 15 5 2 -29 -7 -17 -7 -24 0 -20 12 7 9 -23 -4
-44 -6 -10 -5 -12 2 -7 8 5 12 -6 12 -36 0 -31 3 -39 10 -28 8 12 10 9 10 -11
0 -16 9 -33 22 -43 21 -14 21 -15 3 -10 l-20 6 20 -13 c11 -6 28 -19 37 -28
34 -32 44 -38 61 -35 10 1 23 -6 30 -17 6 -10 19 -19 28 -19 9 0 26 -9 39 -20
12 -11 27 -17 31 -14 5 3 9 -3 9 -13 0 -12 3 -14 8 -6 6 9 11 8 22 -6 7 -11
20 -17 28 -13 9 3 13 1 9 -5 -4 -6 0 -13 7 -16 8 -3 17 -1 20 6 2 7 5 3 5 -7
1 -11 4 -16 7 -13 4 4 15 -3 25 -15 13 -14 19 -17 19 -7 1 9 7 6 19 -8 21 -25
36 -31 26 -10 -4 6 3 1 14 -12 12 -13 32 -24 46 -25 17 -1 23 -6 20 -15 -3 -9
0 -11 10 -7 8 3 15 2 15 -3 0 -4 27 -21 59 -36 33 -16 57 -33 55 -37 -3 -4 2
-5 10 -2 9 3 16 1 16 -6 0 -6 4 -8 10 -5 5 3 10 1 10 -4 0 -6 9 -11 20 -11 12
0 20 -7 20 -17 0 -14 2 -15 9 -5 7 11 9 10 15 -3 3 -9 10 -14 15 -11 5 4 11 1
13 -4 2 -6 13 -12 25 -13 12 0 20 -3 18 -5 -8 -8 20 -29 32 -25 7 3 13 0 13
-7 0 -6 5 -8 10 -5 6 3 10 -1 10 -11 0 -14 3 -14 16 -4 12 11 15 11 12 -1 -2
-8 3 -13 10 -11 7 1 15 -5 18 -13 5 -12 9 -13 20 -4 14 11 15 10 18 -13 0 -6
9 -12 18 -14 10 -1 25 -9 34 -18 8 -9 20 -14 25 -11 5 4 9 2 9 -2 0 -5 9 -14
21 -21 17 -11 20 -11 14 0 -3 7 2 4 12 -7 10 -11 25 -21 33 -23 8 -2 17 -8 18
-13 2 -5 15 -9 28 -9 14 0 23 -4 19 -9 -3 -5 11 -15 30 -21 19 -6 33 -16 30
-21 -4 -5 3 -9 14 -9 11 0 26 -6 33 -13 7 -8 21 -13 31 -11 9 1 15 -1 12 -6
-5 -7 18 -22 40 -25 6 0 9 -5 8 -11 -1 -9 11 -12 54 -16 6 -1 8 -8 5 -16 -4
-11 -1 -14 11 -9 9 3 17 2 17 -3 0 -6 6 -10 13 -10 6 0 23 -9 37 -20 14 -11
33 -20 42 -20 9 0 24 -10 32 -22 9 -12 16 -17 16 -10 0 7 5 10 10 7 6 -4 8
-10 5 -15 -3 -4 2 -11 11 -14 10 -4 13 -2 8 7 -4 6 2 4 13 -6 11 -9 23 -14 26
-10 4 3 7 1 7 -6 0 -8 7 -11 15 -7 8 3 14 0 12 -6 -1 -6 9 -15 23 -19 14 -4
21 -8 15 -8 -5 -1 2 -9 18 -17 15 -8 32 -12 37 -9 6 3 10 -2 10 -12 0 -15 2
-16 10 -3 8 13 10 13 10 -2 0 -12 5 -16 18 -11 9 3 14 3 10 -2 -12 -12 25 -35
38 -24 7 6 16 3 25 -8 13 -17 13 -17 -6 -3 -17 12 -18 12 -7 0 7 -8 16 -15 20
-16 16 -1 68 -30 80 -44 12 -13 13 -13 7 0 -4 10 -2 9 8 -2 8 -10 19 -18 26
-18 6 0 11 -5 11 -11 0 -5 5 -7 10 -4 6 3 22 -3 36 -14 15 -11 31 -18 37 -14
6 3 7 1 3 -5 -4 -7 -1 -12 9 -12 9 0 14 -4 11 -9 -3 -4 6 -7 19 -5 16 1 30 -5
38 -17 8 -10 17 -16 20 -12 4 3 7 1 7 -6 0 -7 7 -11 15 -8 8 4 17 1 21 -5 5
-7 2 -8 -6 -3 -9 5 -11 4 -6 -3 4 -7 15 -12 24 -12 9 0 26 -7 36 -15 10 -8 23
-12 27 -9 5 3 9 -3 9 -13 0 -15 2 -16 10 -3 8 13 10 12 10 -4 0 -13 5 -17 20
-13 11 3 18 0 17 -6 -1 -6 8 -13 21 -15 12 -2 20 -8 17 -13 -4 -5 3 -9 15 -9
11 0 30 -9 42 -20 12 -11 28 -20 35 -20 7 0 13 -6 13 -12 0 -9 4 -8 10 2 8 13
10 12 10 -3 0 -10 4 -15 10 -12 5 3 10 3 10 -2 0 -4 14 -16 31 -25 18 -11 27
-13 24 -5 -4 6 2 2 13 -11 14 -15 22 -18 25 -10 3 7 6 4 6 -6 1 -11 4 -16 8
-13 3 4 12 2 19 -3 6 -6 18 -9 25 -8 8 2 13 -4 11 -14 -2 -12 3 -16 17 -13 11
2 22 -3 25 -11 3 -8 17 -14 31 -14 15 0 24 -4 20 -10 -3 -6 1 -10 9 -10 9 0
25 -9 36 -20 12 -12 20 -15 20 -7 0 6 5 4 11 -6 6 -9 14 -15 20 -12 5 4 9 1 9
-6 0 -6 8 -9 19 -6 14 3 18 1 14 -9 -4 -10 3 -14 22 -14 15 0 24 -4 20 -10 -3
-5 1 -10 9 -10 9 0 16 -4 16 -9 0 -6 9 -8 20 -6 11 2 18 0 15 -5 -3 -5 13 -17
35 -28 22 -10 38 -21 35 -24 -3 -3 5 -5 17 -4 15 1 22 -4 20 -13 -2 -8 3 -11
13 -8 8 4 15 2 15 -3 0 -5 11 -12 25 -16 15 -4 22 -11 18 -18 -4 -6 1 -5 11 3
15 12 17 12 14 0 -2 -8 4 -13 14 -13 10 1 20 -7 23 -17 4 -11 9 -18 13 -15 13
7 53 -14 47 -24 -3 -6 1 -7 10 -4 9 4 22 -1 31 -12 9 -11 13 -12 9 -4 -4 10
-2 9 8 -3 8 -9 19 -17 26 -17 6 0 11 -5 11 -11 0 -8 6 -7 17 2 9 8 14 10 11 4
-3 -5 0 -16 8 -23 8 -7 14 -10 14 -6 0 4 8 0 18 -8 9 -8 32 -20 49 -28 18 -7
30 -17 26 -23 -3 -5 -1 -7 5 -3 6 3 13 2 17 -4 4 -6 11 -8 16 -5 5 4 9 1 9 -4
0 -6 8 -11 19 -11 22 0 44 -23 33 -35 -4 -5 -2 -5 5 -1 7 4 26 0 43 -9 16 -8
32 -15 36 -15 3 1 14 -9 25 -21 12 -14 19 -17 19 -8 0 8 6 4 16 -9 8 -12 22
-22 30 -22 8 0 14 -3 14 -8 0 -7 62 -38 68 -33 2 1 11 -6 20 -16 9 -10 23 -19
31 -21 8 -2 20 -11 28 -20 10 -14 12 -14 13 -2 0 12 3 11 11 -3 6 -9 14 -15
19 -12 5 3 12 0 15 -5 6 -11 50 -32 68 -34 4 -1 12 -8 17 -16 7 -11 10 -11 10
-2 0 10 3 10 14 0 8 -7 12 -16 10 -19 -2 -3 3 -6 11 -6 8 0 11 5 8 11 -3 6 7
-2 22 -17 15 -16 33 -26 41 -23 9 3 14 -1 14 -12 0 -13 2 -14 9 -4 7 11 9 11
14 0 3 -10 19 -14 45 -14 22 1 38 -2 36 -5 -2 -4 3 -9 11 -12 9 -4 12 -1 9 7
-3 8 0 17 7 22 7 4 10 3 5 -4 -4 -7 3 -10 21 -8 16 2 37 4 48 5 17 1 18 3 5
11 -13 8 -12 10 5 11 11 1 24 1 28 0 13 -2 57 36 49 43 -3 4 1 4 11 0 10 -3
17 -1 17 6 0 6 5 8 10 5 6 -3 10 -1 10 4 0 6 18 14 40 17 23 4 37 11 33 17 -4
6 2 8 16 4 15 -3 24 1 31 14 6 10 20 19 30 19 11 0 20 3 20 8 0 4 9 13 21 20
17 11 20 11 14 0 -3 -7 0 -5 8 4 8 10 17 15 20 11 4 -3 7 -1 7 6 0 7 5 9 10 6
6 -3 10 -1 10 4 0 6 7 11 15 11 8 0 15 4 15 10 0 5 8 7 18 3 9 -3 14 -3 10 2
-4 4 15 19 42 33 27 13 47 28 44 33 -3 5 2 6 10 3 9 -3 16 -1 16 5 0 6 6 8 14
5 8 -3 17 0 21 5 3 6 12 8 18 4 7 -4 5 2 -3 12 -8 10 -10 16 -4 12 7 -4 17 0
24 8 6 7 18 11 26 8 8 -3 14 0 14 7 0 6 5 8 10 5 6 -3 10 -1 10 5 0 6 5 8 10
5 6 -3 10 -1 10 4 0 6 4 10 9 9 5 -2 17 6 26 17 9 11 13 13 9 5 -7 -13 -6 -13
11 0 10 8 19 13 21 10 1 -3 6 -1 11 4 5 5 2 6 -6 1 -9 -5 -12 -4 -7 3 4 7 16
12 26 12 10 0 26 7 34 16 9 8 16 12 16 8 0 -4 8 0 18 9 9 8 22 16 27 16 6 1
10 5 10 10 0 5 4 13 9 18 5 5 6 3 2 -4 -10 -19 4 -16 27 5 12 10 17 11 12 3
-6 -10 -4 -12 4 -7 7 5 10 14 8 20 -4 9 3 11 19 8 17 -3 24 0 24 11 0 10 8 14
25 12 14 -1 24 0 21 2 -7 7 18 32 27 26 4 -2 7 1 7 6 0 6 3 11 8 10 15 -2 52
14 52 23 0 5 4 7 9 4 5 -3 12 1 15 10 3 9 13 14 20 11 8 -3 17 1 20 9 3 9 10
13 15 10 5 -3 12 1 15 10 3 8 10 12 16 9 5 -3 10 -1 10 5 0 6 4 9 9 6 5 -3 14
1 21 9 7 8 16 12 21 9 5 -3 9 0 9 6 0 6 4 9 9 6 5 -3 12 1 15 10 4 9 13 14 21
10 10 -3 15 1 15 12 0 15 2 15 10 2 8 -13 10 -13 10 1 0 10 7 16 18 15 9 0 16
4 15 10 -1 6 5 11 13 12 7 1 21 3 29 4 8 1 12 5 9 10 -5 7 3 10 22 7 3 0 12 8
21 18 9 11 12 12 8 3 -4 -9 -1 -8 8 3 9 10 18 18 21 18 15 -1 35 12 31 19 -3
5 6 7 19 6 19 -2 23 1 18 13 -5 14 -4 14 13 1 11 -9 16 -10 11 -3 -4 8 -2 13
4 13 6 0 9 4 5 9 -3 6 4 8 15 6 11 -2 20 1 20 6 0 6 5 7 10 4 6 -3 10 1 10 10
0 9 4 14 9 11 14 -9 42 5 34 17 -4 6 0 8 10 4 10 -3 17 -3 17 2 0 5 9 11 21
14 12 3 18 10 15 15 -3 6 2 8 14 5 12 -3 20 0 20 6 0 7 5 9 10 6 6 -3 13 0 16
9 3 8 12 17 20 20 10 4 13 2 8 -7 -4 -6 4 -2 17 10 13 12 29 23 34 25 6 2 9 6
7 11 -1 4 9 5 22 3 29 -5 40 3 26 19 -8 9 -3 12 20 9 17 -2 29 0 26 4 -3 5 13
16 34 26 22 9 39 22 37 28 -1 6 6 12 16 13 9 2 15 -1 11 -6 -3 -5 -10 -6 -16
-3 -7 5 -8 2 -3 -5 5 -9 13 -7 29 8 12 12 28 21 35 21 7 0 9 5 6 10 -3 6 3 10
15 10 25 0 52 24 42 36 -4 5 1 2 11 -5 11 -9 17 -10 17 -2 0 6 7 11 16 11 9 0
12 5 8 12 -5 7 -2 9 9 5 9 -3 18 1 21 10 4 8 12 13 19 10 15 -5 39 18 29 29
-4 4 -1 4 7 -1 7 -4 16 -4 20 1 11 16 52 35 61 29 6 -4 10 2 10 12 0 15 2 16
10 3 8 -13 10 -12 10 3 0 10 5 15 10 12 6 -3 10 -1 10 6 0 7 3 9 7 6 3 -4 12
1 20 11 8 9 11 11 8 4 -6 -11 -3 -12 14 -3 11 7 21 14 21 17 0 3 -5 2 -12 -2
-7 -4 -8 -3 -4 4 4 6 13 9 20 6 7 -3 19 2 26 11 7 8 21 15 32 15 13 0 18 5 15
14 -4 10 0 12 14 9 12 -3 19 0 19 8 0 11 2 11 10 -1 8 -12 10 -10 10 10 0 18
3 21 9 11 5 -7 10 -9 12 -4 2 5 61 37 131 71 69 33 136 71 147 83 12 13 21 19
21 13 0 -5 5 -1 11 9 6 9 14 15 20 12 5 -4 9 -2 9 4 0 6 7 7 17 4 11 -4 14 -3
9 5 -4 7 3 14 19 18 14 3 25 13 25 23 0 13 2 13 9 2 5 -7 10 -9 12 -5 2 5 25
20 52 33 26 13 47 28 47 32 0 4 9 6 20 4 11 -2 19 1 17 8 -1 7 4 11 11 9 6 -1
12 3 12 9 0 5 5 7 12 3 7 -5 9 -2 6 8 -4 8 0 15 8 15 7 0 10 -5 6 -11 -3 -6 5
-3 18 6 14 9 24 22 22 29 -2 10 0 10 12 -1 13 -10 16 -10 16 0 0 8 3 10 7 6 4
-3 13 4 20 16 7 13 12 17 13 11 0 -7 5 -13 11 -13 5 0 7 5 4 10 -3 6 -1 10 5
10 6 0 8 4 5 10 -3 6 1 7 9 4 10 -4 16 -1 16 7 0 11 3 11 10 -1 6 -10 10 -11
10 -2 0 6 7 12 15 12 8 0 15 5 15 10 0 6 7 10 16 10 8 0 12 5 8 11 -4 8 0 9
15 4 16 -5 20 -3 15 9 -4 11 0 13 15 9 13 -3 21 -1 21 6 0 7 -5 9 -12 5 -6 -4
-8 -3 -5 3 4 6 18 9 32 8 14 -2 25 0 25 4 0 4 12 13 26 19 16 8 22 17 18 25
-6 9 -5 9 7 0 12 -10 18 -8 29 7 16 22 36 28 24 8 -5 -9 -3 -9 9 1 9 7 14 17
11 22 -3 5 3 6 12 2 13 -5 15 -3 9 7 -5 8 -4 11 3 6 6 -3 16 -1 24 6 7 7 22
15 33 16 11 2 25 8 30 14 7 8 6 8 -4 3 -9 -5 -12 -4 -8 3 4 5 16 8 28 5 15 -4
22 0 26 17 4 16 8 18 14 8 7 -11 9 -11 9 1 0 7 6 11 15 7 8 -3 14 0 12 7 -1 7
4 11 11 9 6 -1 12 3 12 10 0 6 3 8 7 5 3 -4 18 3 31 15 14 13 22 16 18 8 -7
-13 -6 -13 6 0 7 8 20 16 28 18 8 2 20 8 25 14 7 8 6 8 -4 3 -9 -5 -12 -4 -7
3 3 6 15 9 25 7 11 -2 22 3 25 12 4 10 15 14 30 11 16 -3 23 -1 19 7 -5 14 51
37 63 27 5 -4 2 1 -5 11 -12 15 -12 17 3 11 9 -3 16 -1 16 6 0 6 4 9 9 6 4 -3
20 8 35 24 14 17 23 30 19 30 -4 0 2 7 13 16 10 8 14 13 8 10 -6 -3 -11 1 -11
9 0 8 4 12 9 9 4 -3 8 0 8 6 0 6 5 8 13 4 8 -5 8 -2 -2 9 -7 9 -9 17 -4 17 6
0 8 11 6 24 -3 13 0 27 6 30 7 5 5 16 -6 34 -14 21 -14 24 -2 15 12 -10 15 -8
15 7 0 10 -3 17 -7 14 -4 -2 -6 7 -6 21 0 14 4 22 9 19 6 -4 5 3 -2 15 -8 16
-8 26 -1 35 7 9 7 16 -1 24 -8 8 -8 15 2 27 10 12 10 15 0 15 -9 0 -9 4 1 17
10 11 10 14 2 9 -8 -4 -13 -2 -13 8 0 8 6 17 13 19 9 4 9 6 0 6 -9 1 -10 8 -3
26 6 15 6 26 0 30 -6 4 -10 11 -10 16 0 6 4 7 10 4 6 -3 7 1 4 9 -3 9 -11 13
-18 10 -6 -3 -3 1 7 9 13 11 15 16 5 19 -10 4 -10 9 2 23 8 10 10 16 4 12 -7
-4 -12 2 -11 18 0 16 4 22 11 18 6 -4 4 2 -4 12 -12 14 -12 19 -2 23 10 3 10
7 1 18 -9 11 -8 14 2 14 11 0 11 3 -1 11 -12 8 -12 12 -2 16 10 4 10 9 -3 23
-15 16 -15 19 0 34 11 11 12 16 4 16 -7 0 -9 3 -6 6 3 4 1 16 -5 28 -11 20
-10 20 7 6 15 -12 17 -12 10 -1 -13 22 -16 73 -4 65 8 -4 7 0 0 15 -9 16 -9
21 1 21 9 0 9 3 -2 10 -12 7 -12 12 -3 21 10 10 9 15 -3 24 -15 10 -15 13 1
28 11 11 12 17 4 17 -7 0 -9 3 -6 6 3 4 1 16 -5 28 -10 20 -10 20 7 6 17 -14
17 -14 7 7 -15 28 -15 36 1 27 7 -5 6 0 -3 11 -12 14 -12 19 -2 23 10 3 10 7
1 18 -9 11 -8 14 2 14 11 0 11 3 -1 11 -12 8 -12 12 -2 16 10 4 9 10 -5 26
-10 11 -12 17 -4 12 10 -6 12 -2 6 15 -6 17 -4 21 6 14 10 -6 10 -3 -1 11 -12
14 -12 19 -2 23 10 3 10 7 1 18 -9 11 -8 14 2 14 11 0 11 3 -1 11 -12 8 -12
12 -2 16 10 4 10 9 -3 23 -15 16 -15 19 0 34 11 11 12 16 4 16 -7 0 -9 3 -6 6
3 4 1 16 -5 28 -11 20 -10 20 7 6 15 -12 17 -12 10 -1 -13 22 -16 73 -4 65 7
-4 7 1 -1 15 -8 16 -8 26 -1 35 7 9 7 16 -1 24 -8 8 -8 15 2 27 10 12 10 15 0
15 -9 0 -9 4 1 17 10 11 10 14 2 9 -8 -4 -13 -2 -13 8 0 8 6 17 13 19 9 4 9 6
0 6 -9 1 -10 8 -3 26 6 15 6 26 0 30 -6 4 -10 11 -10 16 0 6 4 7 10 4 6 -3 7
1 4 9 -3 9 -11 13 -18 10 -6 -3 -3 1 7 9 13 11 15 16 5 19 -10 4 -10 9 2 23 8
10 10 16 4 12 -7 -4 -11 2 -11 18 0 16 4 22 11 18 6 -4 4 2 -4 12 -12 14 -12
19 -2 23 10 3 10 7 1 18 -9 11 -8 14 2 14 11 0 11 3 -1 11 -12 8 -12 12 -2 16
10 4 10 9 -3 23 -15 16 -15 19 0 34 11 11 12 16 4 16 -7 0 -9 3 -6 6 3 4 1 16
-5 28 -11 20 -10 20 7 6 15 -12 17 -12 10 -1 -13 22 -16 73 -4 65 8 -4 7 0 0
15 -9 16 -9 21 1 21 9 0 9 3 -2 10 -12 7 -12 12 -3 21 10 10 9 15 -3 24 -15
10 -15 13 1 28 11 11 12 17 4 17 -7 0 -9 3 -6 6 3 4 1 16 -5 28 -10 20 -10 20
7 6 17 -14 17 -14 7 7 -15 28 -15 36 1 27 7 -5 6 0 -3 11 -12 14 -12 19 -2 23
10 3 10 7 1 18 -9 11 -8 14 2 14 11 0 11 3 -1 11 -12 8 -12 12 -2 16 10 4 9
10 -5 26 -10 11 -12 17 -4 12 10 -6 12 -2 6 15 -6 17 -4 21 6 14 10 -6 10 -3
-1 11 -12 14 -12 19 -2 23 10 3 10 7 1 18 -9 11 -8 14 2 14 11 0 11 3 -1 11
-12 8 -12 12 -2 16 10 4 10 9 -3 23 -15 16 -15 19 0 34 11 11 12 16 4 16 -7 0
-9 3 -6 6 3 4 1 16 -5 28 -11 20 -10 20 7 6 15 -12 17 -12 10 -1 -13 22 -16
73 -4 65 7 -4 7 1 -1 15 -8 16 -8 26 -1 35 7 9 7 16 -1 24 -8 8 -8 15 2 27 10
12 10 15 0 15 -9 0 -9 4 1 17 10 11 10 14 2 9 -8 -4 -13 -2 -13 8 0 8 6 17 13
19 9 4 9 6 0 6 -9 1 -10 8 -3 26 6 15 6 26 0 30 -6 4 -10 11 -10 16 0 6 4 7
10 4 6 -3 7 1 4 9 -3 9 -11 13 -18 10 -6 -3 -3 1 7 9 13 11 15 16 5 19 -10 4
-10 9 2 23 8 10 10 16 4 12 -7 -4 -12 2 -11 18 0 16 4 22 11 18 6 -4 4 2 -4
12 -12 14 -12 19 -2 23 10 3 10 7 1 18 -9 11 -8 14 2 14 11 0 11 3 -1 11 -12
8 -12 12 -2 16 10 4 10 9 -3 23 -15 16 -15 19 0 34 11 11 12 16 4 16 -7 0 -9
3 -6 6 3 4 1 16 -5 28 -11 20 -10 20 7 6 15 -12 17 -12 10 -1 -13 22 -16 73
-4 65 8 -4 7 0 0 15 -9 16 -9 21 1 21 9 0 9 3 -2 10 -12 7 -12 12 -3 21 10 10
9 15 -3 24 -15 10 -15 13 1 28 11 11 12 17 4 17 -7 0 -9 3 -6 6 3 4 1 16 -5
28 -10 20 -10 20 7 6 17 -14 17 -14 7 7 -15 28 -15 36 1 27 7 -5 6 0 -3 11
-12 14 -12 19 -2 23 10 3 10 7 1 18 -9 11 -8 14 2 14 11 0 11 3 -1 11 -12 8
-12 12 -2 16 10 4 9 10 -5 26 -10 11 -12 17 -4 12 10 -6 12 -2 6 15 -6 17 -4
21 6 14 10 -6 10 -3 -1 11 -12 14 -12 19 -2 23 10 3 10 7 1 18 -9 11 -8 14 2
14 11 0 11 3 -1 11 -12 8 -12 12 -2 16 10 4 10 9 -3 23 -15 16 -15 19 0 34 11
11 12 16 4 16 -7 0 -9 3 -6 6 3 4 1 16 -5 28 -11 20 -10 20 7 6 15 -12 17 -12
10 -1 -13 22 -16 73 -4 65 7 -4 7 1 -1 15 -8 16 -8 26 -1 35 7 9 7 16 -1 24
-8 8 -8 15 2 27 10 12 10 15 0 15 -9 0 -9 4 1 17 10 11 10 14 2 9 -8 -4 -13
-2 -13 8 0 8 6 17 13 19 9 4 9 6 0 6 -9 1 -10 8 -3 26 6 15 6 26 0 30 -6 4
-10 11 -10 16 0 6 4 7 10 4 6 -3 7 1 4 9 -3 9 -11 13 -18 10 -6 -3 -3 1 7 9
13 11 15 16 5 19 -10 4 -10 9 2 23 8 10 10 16 4 12 -7 -4 -12 2 -11 18 0 16 4
22 11 18 6 -4 4 2 -4 12 -12 14 -12 19 -2 23 10 3 10 7 1 18 -9 11 -8 14 2 14
11 0 11 3 -1 11 -12 8 -12 12 -2 16 10 4 10 9 -3 23 -15 16 -15 19 0 34 11 11
12 16 4 16 -7 0 -9 3 -6 6 3 4 1 16 -5 28 -11 20 -10 20 7 6 15 -12 17 -12 10
-1 -13 22 -16 73 -4 65 8 -4 7 0 0 15 -9 16 -9 21 1 21 10 0 9 3 -1 9 -12 8
-12 13 -3 24 10 12 9 16 -4 21 -15 6 -15 8 2 28 11 12 13 18 6 14 -16 -10 -13
25 3 36 6 5 5 8 -4 8 -11 0 -11 3 0 17 8 9 9 14 3 10 -7 -4 -12 2 -11 18 0 15
4 22 10 18 6 -3 3 4 -5 16 -9 12 -13 32 -10 43 4 16 2 19 -8 13 -10 -6 -12 -4
-7 8 3 10 2 17 -3 17 -6 0 -10 6 -10 14 0 8 -5 18 -12 22 -7 5 -8 3 -3 -6 5
-8 4 -11 -3 -6 -6 4 -9 13 -5 21 3 8 0 15 -7 15 -6 0 -8 5 -4 13 5 8 2 8 -9
-2 -15 -12 -17 -11 -18 10 0 13 -3 19 -5 12 -4 -8 -11 -6 -24 7 -11 11 -28 17
-40 15 -19 -4 -20 -2 -9 11 11 13 10 15 -2 14 -31 -5 -49 1 -49 15 0 9 -6 12
-15 9 -8 -4 -15 -1 -15 5 0 6 -7 11 -15 11 -8 0 -15 5 -15 10 0 6 -9 10 -20
10 -11 0 -20 5 -20 11 0 5 -4 7 -10 4 -5 -3 -10 -1 -10 5 0 6 -4 8 -10 5 -5
-3 -10 -1 -10 5 0 6 -4 8 -10 5 -5 -3 -10 1 -10 11 0 11 -6 15 -20 11 -10 -3
-19 -2 -18 2 2 19 -4 22 -19 10 -9 -8 -14 -9 -10 -3 8 14 -10 31 -38 36 -11 1
-25 10 -32 18 -7 8 -13 11 -13 5 0 -7 -3 -7 -8 0 -12 17 -56 51 -48 38 4 -7 3
-13 -2 -13 -6 0 -13 7 -16 16 -4 10 -14 14 -25 11 -12 -3 -18 1 -17 12 1 10
-5 15 -16 13 -10 -2 -18 2 -18 8 0 6 -4 8 -10 5 -5 -3 -10 -1 -10 4 0 6 -7 11
-15 11 -9 0 -18 7 -22 16 -5 13 -7 13 -14 2 -7 -10 -9 -9 -9 4 0 11 -5 15 -15
12 -8 -4 -17 1 -21 10 -3 9 -10 13 -15 10 -5 -3 -9 1 -9 8 0 9 -3 9 -10 -2 -8
-13 -10 -12 -10 3 0 10 -4 15 -10 12 -5 -3 -10 -1 -10 4 0 6 -9 11 -21 11 -11
0 -18 3 -15 8 2 4 -20 19 -50 32 -30 14 -54 28 -54 31 0 4 -7 10 -16 13 -10 4
-13 2 -8 -7 4 -6 -3 -2 -15 11 -12 12 -26 20 -32 17 -5 -4 -9 -1 -9 4 0 6 -7
11 -15 11 -8 0 -15 5 -15 10 0 6 -9 10 -21 10 -11 0 -17 5 -14 10 3 6 -3 10
-15 10 -12 0 -19 4 -16 9 4 5 -5 8 -19 7 -13 -2 -22 1 -19 6 3 5 -8 13 -25 19
-17 6 -28 15 -25 20 3 5 2 8 -3 7 -11 -3 -73 20 -73 27 0 3 5 3 12 -1 6 -4 8
-3 4 4 -3 6 -18 9 -32 6 -16 -3 -23 -1 -19 6 4 6 -7 16 -24 23 -17 7 -28 17
-24 22 5 5 -1 3 -11 -5 -11 -8 -17 -10 -13 -3 4 7 -5 16 -23 25 -16 7 -30 16
-30 20 0 4 -7 4 -17 1 -12 -5 -14 -3 -8 7 6 10 3 12 -13 8 -12 -4 -22 -2 -22
4 0 5 -4 6 -10 3 -6 -3 -7 1 -4 9 4 11 0 16 -13 16 -11 0 -29 9 -41 20 -13 12
-22 16 -22 8 0 -6 -7 -3 -15 8 -8 10 -15 15 -15 10 0 -5 -8 0 -17 11 -10 11
-24 18 -30 16 -7 -3 -13 1 -13 8 0 7 -3 10 -6 6 -4 -3 -13 1 -21 9 -9 8 -22
13 -30 10 -8 -3 -11 -1 -8 4 3 6 -1 10 -9 10 -8 0 -19 7 -24 16 -5 9 -11 15
-13 13 -10 -5 -49 13 -44 22 3 5 -1 6 -9 3 -11 -4 -16 0 -16 12 0 11 -4 15 -8
9 -4 -5 -14 -12 -22 -13 -8 -2 -12 0 -8 4 11 11 -11 34 -33 34 -10 0 -25 10
-33 22 -15 21 -16 21 -17 3 0 -18 -1 -18 -9 3 -5 12 -12 22 -15 22 -4 0 -3 -5
1 -11 4 -8 0 -8 -15 0 -11 7 -21 14 -21 17 0 3 5 2 12 -2 7 -4 8 -3 4 4 -4 6
-13 9 -21 5 -8 -3 -15 0 -15 6 0 6 -7 11 -15 11 -7 0 -19 8 -24 18 -7 11 -10
12 -11 3 0 -9 -5 -7 -17 6 -10 10 -14 12 -8 3 5 -8 -5 -2 -23 14 -18 17 -42
31 -55 33 -12 2 -23 8 -25 13 -2 6 -13 10 -23 10 -11 0 -18 4 -15 9 7 11 -22
23 -36 14 -7 -3 -8 -1 -4 5 4 7 1 12 -8 12 -9 0 -16 5 -16 11 0 5 -4 7 -10 4
-5 -3 -17 3 -26 13 -10 12 -24 18 -37 14 -14 -3 -18 -1 -13 6 6 11 3 13 -19
12 -3 0 -15 9 -27 20 -12 11 -28 18 -35 16 -7 -3 -13 2 -13 10 0 8 -4 13 -9 9
-5 -3 -16 1 -24 9 -8 8 -17 12 -21 9 -3 -4 -6 -1 -6 6 0 7 -4 9 -10 6 -5 -3
-10 -1 -10 5 0 6 -4 8 -10 5 -5 -3 -10 2 -11 12 0 11 -3 13 -6 5 -3 -9 -10 -7
-24 9 -10 12 -19 17 -19 10 0 -8 -5 -7 -16 3 -8 9 -20 13 -26 10 -7 -4 -8 -2
-4 4 4 7 2 12 -4 12 -6 0 -8 6 -4 13 5 9 4 9 -6 0 -11 -10 -16 -9 -27 5 -10
12 -12 12 -8 2 4 -10 2 -9 -8 3 -8 9 -22 17 -31 17 -9 0 -16 5 -16 10 0 6 -7
10 -15 10 -7 0 -19 8 -24 18 -6 9 -11 13 -11 9 0 -11 -43 13 -53 29 -4 7 -14
11 -22 8 -8 -4 -15 -1 -15 5 0 6 -9 11 -20 11 -11 0 -20 7 -20 15 0 9 -6 12
-15 9 -8 -4 -15 -1 -15 5 0 6 -8 11 -18 11 -10 0 -27 8 -38 18 -10 9 -28 24
-39 32 -17 13 -18 13 -10 0 6 -11 3 -10 -12 3 -11 9 -23 14 -26 10 -4 -3 -7 0
-7 7 0 7 -3 10 -6 7 -4 -4 -15 3 -25 15 -11 11 -19 18 -19 14 0 -4 -10 -1 -22
6 -13 7 -27 12 -31 13 -4 0 -12 6 -16 14 -5 7 -13 11 -18 8 -5 -3 -16 3 -23
14 -8 10 -23 19 -33 19 -9 0 -20 6 -23 14 -3 8 -19 18 -35 21 -16 4 -29 11
-29 16 0 6 -4 7 -10 4 -5 -3 -10 -1 -10 5 0 6 -4 8 -10 5 -5 -3 -10 1 -10 10
0 13 -4 14 -21 4 -14 -7 -19 -7 -15 0 7 10 -27 34 -38 26 -3 -3 -4 -2 -1 2 3
3 -13 14 -36 24 -22 10 -38 23 -35 28 3 5 -4 7 -16 3 -16 -4 -19 -2 -13 8 6
10 4 12 -8 7 -10 -4 -17 -2 -17 4 0 6 -8 8 -17 5 -10 -4 -14 -4 -11 0 4 3 1
13 -7 20 -17 17 -28 18 -20 2 4 -7 -2 -3 -13 10 -11 12 -25 22 -31 22 -6 0
-11 4 -11 10 0 5 -7 7 -15 4 -8 -4 -15 -1 -15 6 0 7 -7 10 -15 6 -9 -3 -19 3
-25 15 -6 11 -15 17 -20 14 -5 -3 -19 5 -31 17 -12 13 -19 17 -14 10 6 -11 3
-11 -14 0 -12 7 -21 20 -21 28 0 9 -3 11 -8 5 -8 -12 -36 -19 -29 -8 6 10 -19
34 -27 26 -3 -4 -15 4 -26 17 -12 14 -20 18 -20 10 0 -10 -4 -8 -13 4 -7 9
-22 18 -34 19 -12 0 -20 3 -18 5 7 7 -20 30 -31 25 -6 -2 -17 3 -24 12 -7 8
-19 15 -27 15 -8 0 -11 5 -7 13 4 6 4 9 -1 5 -4 -4 -15 -2 -23 5 -13 10 -15 9
-8 -3 4 -9 1 -8 -7 3 -8 9 -19 17 -26 17 -6 0 -11 4 -11 9 0 6 -9 8 -19 6 -15
-3 -18 1 -14 12 4 10 2 14 -5 9 -6 -3 -14 -2 -17 4 -5 8 -11 7 -21 -1 -12 -10
-13 -9 -9 4 4 8 2 18 -4 22 -6 3 -11 1 -11 -6 0 -8 -4 -8 -12 -1 -7 6 -16 11
-20 11 -5 1 -11 2 -15 2 -30 5 -41 3 -62 -9 -13 -8 -21 -10 -17 -4 3 5 -3 12
-14 15 -11 3 -18 1 -15 -3z m2390 -1250 c3 -5 1 -10 -4 -10 -6 0 -11 5 -11 10
0 6 2 10 4 10 3 0 8 -4 11 -10z"/>
</g>
</svg>
